<svg xmlns="http://www.w3.org/2000/svg" viewBox="0 0 220 64" fill="#FFFFFF">
  <g>
    <path d="M32 6c14.36 0 26 11.64 26 26S46.36 58 32 58 6 46.36 6 32 17.64 6 32 6zm0 4C19.85 10 10 19.85 10 32s9.85 22 22 22 22-9.85 22-22S44.15 10 32 10zm0 8a14 14 0 0 1 9.9 23.9c-.8.8-2.1.8-2.9 0l-7-7a2 2 0 0 1 0-2.9l7-7a2 2 0 0 1 2.9 0A14 14 0 0 1 32 18z"/>
    <text x="70" y="42" font-family="Inter, sans-serif" font-size="32" font-weight="600" letter-spacing="0.5" fill="#FFFFFF">
      saveat
    </text>
  </g>
</svg>
